<svg xmlns="http://www.w3.org/2000/svg" viewBox="0 0 800 800" role="img"><rect width="800" height="800" fill="#FFFDF7"/><path d="M400 90c120 0 250 60 290 180s10 250-70 330-230 130-350 90S80 540 90 410s70-230 150-280 100-40 160-40z" fill="#FFE9A8"/><g fill="#F4C542" opacity=".8"><path d="M140 170l8 22 22 8-22 8-8 22-8-22-22-8 22-8z"/><path d="M660 610l6 16 16 6-16 6-6 16-6-16-16-6 16-6z"/><circle cx="650" cy="190" r="9"/><circle cx="170" cy="620" r="7"/></g><rect x="250" y="340" width="300" height="220" rx="20" fill="#F4C542"/><rect x="230" y="300" width="340" height="70" rx="18" fill="#F4C542"/><rect x="385" y="300" width="30" height="260" fill="#EE8FB0"/><path d="M400 300c-80-90-150-20-60 0M400 300c80-90 150-20 60 0" fill="none" stroke="#EE8FB0" stroke-width="16"/><text x="400" y="480" font-family="'Baloo Da 2',Arial,sans-serif" font-size="90" font-weight="800" fill="#fff" text-anchor="middle">1</text></svg>