<svg xmlns="http://www.w3.org/2000/svg" xmlns:xlink="http://www.w3.org/1999/xlink" viewBox="0 0 1200 630" width="1200" height="630"><defs><linearGradient id="g" x1="0" y1="0" x2="1" y2="1"><stop offset="0" stop-color="#F6E6BC"/><stop offset=".45" stop-color="#D4AF6A"/><stop offset="1" stop-color="#B8914A"/></linearGradient><radialGradient id="r" cx=".8" cy=".5" r=".7"><stop offset="0" stop-color="#2A2416"/><stop offset="1" stop-color="#0E0D0B"/></radialGradient></defs>
<rect width="1200" height="630" fill="url(#r)"/>
<rect x="18" y="18" width="1164" height="594" rx="22" fill="none" stroke="url(#g)" stroke-width="2" opacity=".6"/>
<clipPath id="c"><rect x="700" y="70" width="450" height="490" rx="20"/></clipPath><rect x="700" y="70" width="450" height="490" rx="20" fill="none" stroke="url(#g)" stroke-width="2" opacity=".6"/>
<g transform="translate(70 70) scale(.24)">
<rect width="512" height="512" rx="120" fill="#0E0D0B"/>
<circle cx="256" cy="268" r="178" fill="none" stroke="url(#g)" stroke-width="10"/>
<circle cx="256" cy="268" r="160" fill="none" stroke="url(#g)" stroke-width="3" opacity=".7"/>
<text x="256" y="352" text-anchor="middle" font-family="'Cormorant Garamond','Playfair Display',Georgia,serif" font-size="250" font-weight="600" fill="url(#g)">S</text>
<g transform="translate(256 84)"><path d="M-34 0 L-20 -18 H20 L34 0 L0 40 Z" fill="url(#g)"/><path d="M-34 0 H34 M-20 -18 L-8 0 L0 40 L8 0 L20 -18 M-8 0 L0 -18 L8 0" fill="none" stroke="#0E0D0B" stroke-width="3" stroke-linejoin="round"/></g>
</g>
<text x="70" y="270" font-family="'Cormorant Garamond',Georgia,serif" font-size="68" font-weight="600" fill="url(#g)">Sidra Jewellery</text><text x="70" y="340" font-family="'Cormorant Garamond',Georgia,serif" font-size="68" font-weight="600" fill="url(#g)">&amp; Fashion</text>
<text x="72" y="408" font-family="'Cormorant Garamond',Georgia,serif" font-size="40" font-style="italic" fill="#F3EBDD" opacity=".9">Shine in every moment</text>
<text x="72" y="470" font-family="Jost,Arial,sans-serif" font-size="22" fill="#D4AF6A" letter-spacing="2">EARRINGS · NECKLACES · BANGLES · SETS</text>
<text x="72" y="514" font-family="Jost,Arial,sans-serif" font-size="24" fill="#F3EBDD" opacity=".75">Cash on Delivery across Bangladesh</text>
</svg>