<svg xmlns="http://www.w3.org/2000/svg" viewBox="0 0 800 800" role="img"><rect width="800" height="800" fill="#FFFDF7"/><path d="M400 90c120 0 250 60 290 180s10 250-70 330-230 130-350 90S80 540 90 410s70-230 150-280 100-40 160-40z" fill="#FFD8C7"/><g fill="#F59F7E" opacity=".8"><path d="M140 170l8 22 22 8-22 8-8 22-8-22-22-8 22-8z"/><path d="M660 610l6 16 16 6-16 6-6 16-6-16-16-6 16-6z"/><circle cx="650" cy="190" r="9"/><circle cx="170" cy="620" r="7"/></g><circle cx="310" cy="250" r="55" fill="#F59F7E"/><circle cx="490" cy="250" r="55" fill="#F59F7E"/><circle cx="400" cy="330" r="120" fill="#F59F7E"/><ellipse cx="400" cy="520" rx="130" ry="100" fill="#F59F7E"/><ellipse cx="400" cy="370" rx="50" ry="36" fill="#fff" opacity=".7"/><g transform="translate(400 320) scale(1)" fill="#35304A"><circle cx="-26" cy="0" r="8"/><circle cx="26" cy="0" r="8"/><path d="M-16 24q16 16 32 0" fill="none" stroke="#35304A" stroke-width="6" stroke-linecap="round"/><circle cx="-44" cy="20" r="9" fill="#F7A6B8" opacity=".7"/><circle cx="44" cy="20" r="9" fill="#F7A6B8" opacity=".7"/></g><path d="M360 420h80l-40 30z" fill="#F7A6B8"/></svg>